<svg width="64" height="65" viewBox="0 0 64 65" fill="none" xmlns="http://www.w3.org/2000/svg">
<path d="M64 26.6666C64 31.4999 62.5714 35.9652 59.7143 40.0624C56.8571 44.1596 52.9762 47.3957 48.0714 49.7707C43.1667 52.1457 37.8095 53.3332 32 53.3332C30.3333 53.3332 28.6071 53.2221 26.8214 52.9999C22.1071 57.861 16.631 61.2221 10.3929 63.0832C9.22619 63.4721 7.86905 63.7777 6.32143 63.9999C5.91667 64.0554 5.55357 63.9304 5.23214 63.6249C4.91071 63.3193 4.70238 62.9165 4.60714 62.4165V62.3749C4.53571 62.2638 4.52976 62.0971 4.58929 61.8749C4.64881 61.6527 4.67262 61.5138 4.66071 61.4582C4.64881 61.4027 4.70238 61.2707 4.82143 61.0624L5.03571 60.6874L5.28571 60.3332L5.57143 59.9582C5.7381 59.736 6.10714 59.2568 6.67857 58.5207C7.25 57.7846 7.66071 57.2568 7.91071 56.9374C8.16072 56.618 8.52976 56.0693 9.01786 55.2916C9.50595 54.5138 9.89286 53.8055 10.1786 53.1666C10.4643 52.5277 10.7857 51.7082 11.1429 50.7082C11.5 49.7082 11.8095 48.6527 12.0714 47.5416C8.33333 45.0694 5.38691 42.0138 3.23214 38.3749C1.07738 34.736 0 30.8333 0 26.6666C0 23.0555 0.845238 19.6041 2.53571 16.3125C4.22619 13.0208 6.5 10.1805 9.35714 7.79165C12.2143 5.40277 15.619 3.50694 19.5714 2.10416C23.5238 0.701388 27.6667 0 32 0C37.8095 0 43.1667 1.1875 48.0714 3.56249C52.9762 5.93749 56.8571 9.17359 59.7143 13.2708C62.5714 17.368 64 21.8333 64 26.6666Z" fill="#87986A"/>
</svg>
