<svg width="112" height="112" viewBox="0 0 112 112" fill="none" xmlns="http://www.w3.org/2000/svg">
<path d="M20.0341 49.966L52.7007 17.2993C53.5759 16.4245 54.7626 15.933 56.0001 15.933C57.2375 15.933 58.4243 16.4245 59.2994 17.2993L91.9661 49.966C92.8413 50.841 93.3331 52.0278 93.3334 53.2653V98C93.3334 99.2377 92.8417 100.425 91.9666 101.3C91.0914 102.175 89.9044 102.667 88.6667 102.667H65.3334V70H46.6667V102.667H23.3334C22.0957 102.667 20.9088 102.175 20.0336 101.3C19.1584 100.425 18.6667 99.2377 18.6667 98V53.2653C18.667 52.0278 19.1589 50.841 20.0341 49.966Z" fill="#87986A"/>
</svg>
