<svg width="64" height="64" viewBox="0 0 64 64" fill="none" xmlns="http://www.w3.org/2000/svg">
<path d="M34.1733 32.5253L14.088 35.872C13.8571 35.9105 13.6404 36.0092 13.4597 36.158C13.279 36.3069 13.1407 36.5007 13.0586 36.72L6.1333 55.2747C5.47197 56.9813 7.25597 58.608 8.8933 57.7867L56.8933 33.7867C57.2251 33.6204 57.504 33.3651 57.699 33.0493C57.8939 32.7335 57.9972 32.3698 57.9972 31.9987C57.9972 31.6276 57.8939 31.2638 57.699 30.948C57.504 30.6322 57.2251 30.3769 56.8933 30.2107L8.8933 6.21066C7.25597 5.39199 5.47197 7.01866 6.1333 8.72266L13.0613 27.2773C13.1433 27.4966 13.2816 27.6904 13.4623 27.8393C13.643 27.9881 13.8597 28.0868 14.0906 28.1253L34.176 31.472C34.3013 31.492 34.4153 31.556 34.4977 31.6525C34.58 31.7491 34.6252 31.8718 34.6252 31.9987C34.6252 32.1255 34.58 32.2483 34.4977 32.3448C34.4153 32.4413 34.3013 32.5053 34.176 32.5253H34.1733Z" fill="#87986A"/>
</svg>
