<svg width="58" height="64" viewBox="0 0 58 64" fill="none" xmlns="http://www.w3.org/2000/svg">
<path d="M50.7564 22.0688L34.8876 19.7625L27.7939 5.38126C27.6001 4.98751 27.2814 4.66876 26.8876 4.47501C25.9001 3.98751 24.7001 4.39376 24.2064 5.38126L17.1126 19.7625L1.24387 22.0688C0.806368 22.1313 0.406367 22.3375 0.100117 22.65C-0.270122 23.0306 -0.474141 23.5425 -0.467109 24.0734C-0.460078 24.6043 -0.242571 25.1107 0.137617 25.4813L11.6189 36.675L8.90637 52.4813C8.84276 52.849 8.88345 53.2271 9.02382 53.5729C9.16419 53.9186 9.39863 54.2181 9.70055 54.4374C10.0025 54.6566 10.3598 54.7869 10.732 54.8135C11.1042 54.84 11.4764 54.7617 11.8064 54.5875L26.0001 47.125L40.1939 54.5875C40.5814 54.7938 41.0314 54.8625 41.4626 54.7875C42.5501 54.6 43.2814 53.5688 43.0939 52.4813L40.3814 36.675L51.8626 25.4813C52.1751 25.175 52.3814 24.775 52.4439 24.3375C52.6126 23.2438 51.8501 22.2313 50.7564 22.0688V22.0688Z" fill="#DE80FF"/>
</svg>
