<svg width="88" height="88" viewBox="0 0 88 88" fill="none" xmlns="http://www.w3.org/2000/svg">
<path d="M73.5598 68.5575C77.5091 63.8058 80.2559 58.1728 81.5678 52.135C82.8797 46.0972 82.7181 39.8323 81.0966 33.8702C79.4752 27.908 76.4416 22.4241 72.2526 17.8824C68.0635 13.3406 62.8421 9.87459 57.0302 7.77752C51.2183 5.68045 44.9868 5.01403 38.8629 5.83463C32.739 6.65523 26.9028 8.93871 21.848 12.4919C16.7932 16.0451 12.6686 20.7635 9.82298 26.2479C6.9774 31.7323 5.4946 37.8213 5.50001 44C5.50209 52.982 8.66731 61.6764 14.4403 68.5575L14.3853 68.6043C14.5778 68.8353 14.7978 69.0333 14.9958 69.2615C15.2433 69.5448 15.51 69.8115 15.7658 70.0865C16.5358 70.9225 17.3278 71.7255 18.1583 72.479C18.4113 72.71 18.6725 72.9245 18.9283 73.1445C19.8083 73.9035 20.713 74.624 21.6508 75.295C21.7718 75.3775 21.8818 75.4848 22.0028 75.57V75.537C28.4436 80.0695 36.1271 82.502 44.0028 82.502C51.8785 82.502 59.562 80.0695 66.0028 75.537V75.57C66.1238 75.4848 66.231 75.3775 66.3548 75.295C67.2898 74.6213 68.1973 73.9035 69.0773 73.1445C69.333 72.9245 69.5943 72.7073 69.8473 72.479C70.6778 71.7228 71.4698 70.9225 72.2398 70.0865C72.4955 69.8115 72.7595 69.5448 73.0098 69.2615C73.205 69.0333 73.4278 68.8353 73.6203 68.6015L73.5598 68.5575ZM44 22C46.4476 22 48.8401 22.7258 50.8752 24.0856C52.9103 25.4454 54.4964 27.3781 55.433 29.6393C56.3697 31.9005 56.6147 34.3887 56.1372 36.7893C55.6597 39.1898 54.4811 41.3948 52.7505 43.1255C51.0198 44.8561 48.8148 46.0347 46.4143 46.5122C44.0137 46.9897 41.5255 46.7446 39.2643 45.808C37.0031 44.8714 35.0704 43.2852 33.7106 41.2502C32.3508 39.2151 31.625 36.8226 31.625 34.375C31.625 31.093 32.9288 27.9453 35.2496 25.6246C37.5703 23.3038 40.718 22 44 22ZM22.0193 68.5575C22.067 64.9467 23.5344 61.4998 26.104 58.9626C28.6736 56.4254 32.1389 55.0019 35.75 55H52.25C55.8612 55.0019 59.3264 56.4254 61.896 58.9626C64.4657 61.4998 65.9331 64.9467 65.9808 68.5575C59.9496 73.9924 52.1187 77.0002 44 77.0002C35.8813 77.0002 28.0505 73.9924 22.0193 68.5575Z" fill="#87986A"/>
</svg>
