<svg width="112" height="112" viewBox="0 0 112 112" fill="none" xmlns="http://www.w3.org/2000/svg">
<path d="M20.034 49.966L52.7006 17.2993C53.5758 16.4245 54.7625 15.933 56 15.933C57.2374 15.933 58.4242 16.4245 59.2993 17.2993L91.966 49.966C92.8412 50.841 93.333 52.0278 93.3333 53.2653V98C93.3333 99.2377 92.8416 100.425 91.9665 101.3C91.0913 102.175 89.9043 102.667 88.6666 102.667H65.3333V70H46.6666V102.667H23.3333C22.0956 102.667 20.9086 102.175 20.0335 101.3C19.1583 100.425 18.6666 99.2377 18.6666 98V53.2653C18.6669 52.0278 19.1587 50.841 20.034 49.966Z" fill="#87986A"/>
</svg>
