<svg width="112" height="112" viewBox="0 0 112 112" fill="none" xmlns="http://www.w3.org/2000/svg">
<path d="M110.307 30.848L99.4792 22.5551C97.4609 15.2019 93.2295 8.92437 87.5497 4.85716C81.8699 0.789943 75.1165 -0.79861 68.5102 0.378625C61.9038 1.55586 55.8804 5.42121 51.5286 11.276C47.1768 17.1308 44.7838 24.5888 44.7821 32.3019V41.5641L0.819106 104.999C0.380575 105.631 0.105249 106.393 0.0246923 107.197C-0.0558649 108.002 0.0616064 108.816 0.36364 109.547C0.665673 110.277 1.14004 110.895 1.73237 111.329C2.3247 111.763 3.01102 111.995 3.71264 112H52.2493C65.1144 111.972 77.4456 106.062 86.5426 95.5653C95.6397 85.0687 100.761 70.8404 100.786 55.9959V45.3875L110.307 38.0639C110.827 37.6724 111.254 37.1374 111.549 36.5075C111.845 35.8775 112 35.1724 112 34.4559C112 33.7395 111.845 33.0344 111.549 32.4044C111.254 31.7744 110.827 31.2395 110.307 30.848ZM51.3626 67.3583L32.6946 93.2063C32.031 93.9397 31.1564 94.3649 30.2381 94.4007C29.3198 94.4364 28.4223 94.0802 27.7173 93.4002C27.0124 92.7201 26.5496 91.764 26.4174 90.7149C26.2852 89.6657 26.493 88.5971 27.0009 87.7136L45.6688 61.8656C45.9591 61.3607 46.3384 60.9322 46.7819 60.6079C47.2255 60.2837 47.7233 60.0711 48.243 59.9839C48.7626 59.8967 49.2923 59.937 49.7975 60.1021C50.3027 60.2672 50.772 60.5534 51.1749 60.942C51.5777 61.3306 51.905 61.8129 52.1353 62.3574C52.3656 62.9019 52.4938 63.4963 52.5115 64.1018C52.5293 64.7073 52.4361 65.3103 52.2381 65.8715C52.0401 66.4326 51.7418 66.9392 51.3626 67.3583ZM76.5176 34.4559C75.41 34.4559 74.3272 34.0769 73.4062 33.3669C72.4852 32.6568 71.7674 31.6476 71.3435 30.4668C70.9197 29.286 70.8087 27.9868 71.0248 26.7332C71.2409 25.4797 71.7743 24.3283 72.5575 23.4246C73.3408 22.5209 74.3387 21.9054 75.425 21.6561C76.5114 21.4067 77.6374 21.5347 78.6608 22.0238C79.6841 22.5129 80.5588 23.3412 81.1742 24.4038C81.7895 25.4665 82.118 26.7159 82.118 27.9939C82.118 29.7078 81.5279 31.3514 80.4777 32.5633C79.4274 33.7751 78.0029 34.4559 76.5176 34.4559Z" fill="#B5C99A"/>
</svg>
