<svg width="64" height="66" viewBox="0 0 64 66" fill="none" xmlns="http://www.w3.org/2000/svg">
<path d="M44.0001 11C43.9998 8.65374 44.8245 6.38207 46.33 4.58245C47.8354 2.78283 49.9257 1.56986 52.2351 1.15575C54.5446 0.741648 56.9261 1.15278 58.963 2.31721C60.9999 3.48165 62.5626 5.32524 63.3775 7.52544C64.1924 9.72563 64.2078 12.1423 63.4209 14.3527C62.6339 16.5631 61.0949 18.4264 59.0729 19.6166C57.0509 20.8068 54.6748 21.2481 52.3603 20.8634C50.0458 20.4787 47.9403 19.2924 46.4121 17.512L19.5401 29.992C20.1578 31.9498 20.1578 34.0502 19.5401 36.008L46.4121 48.488C48.0275 46.6093 50.2827 45.3972 52.7409 45.0866C55.199 44.776 57.6849 45.389 59.7168 46.8068C61.7487 48.2246 63.182 50.3462 63.7388 52.7605C64.2955 55.1748 63.9362 57.7098 62.7304 59.8743C61.5247 62.0388 59.5583 63.6786 57.2124 64.4758C54.8665 65.2731 52.3082 65.1711 50.0332 64.1897C47.7582 63.2082 45.9286 61.4171 44.8989 59.1635C43.8693 56.9099 43.7129 54.3543 44.4601 51.992L17.5881 39.512C16.2578 41.0623 14.4847 42.168 12.5072 42.6803C10.5297 43.1927 8.44274 43.0872 6.52704 42.3779C4.61133 41.6687 2.95879 40.3897 1.79171 38.7132C0.62464 37.0366 -0.000976563 35.0428 -0.000976562 33C-0.000976563 30.9572 0.62464 28.9634 1.79171 27.2869C2.95879 25.6103 4.61133 24.3313 6.52704 23.6221C8.44274 22.9128 10.5297 22.8073 12.5072 23.3197C14.4847 23.832 16.2578 24.9377 17.5881 26.488L44.4601 14.008C44.1542 13.0347 43.9991 12.0203 44.0001 11Z" fill="#87986A"/>
</svg>
