<svg width="64" height="64" viewBox="0 0 64 64" fill="none" xmlns="http://www.w3.org/2000/svg">
<path d="M56.7564 22.0688L40.8876 19.7625L33.7939 5.38126C33.6001 4.98751 33.2814 4.66876 32.8876 4.47501C31.9001 3.98751 30.7001 4.39376 30.2064 5.38126L23.1126 19.7625L7.24387 22.0688C6.80637 22.1313 6.40637 22.3375 6.10012 22.65C5.72988 23.0306 5.52586 23.5425 5.53289 24.0734C5.53992 24.6043 5.75743 25.1107 6.13762 25.4813L17.6189 36.675L14.9064 52.4813C14.8428 52.849 14.8834 53.2271 15.0238 53.5729C15.1642 53.9186 15.3986 54.2181 15.7005 54.4374C16.0025 54.6566 16.3598 54.7869 16.732 54.8135C17.1042 54.84 17.4764 54.7617 17.8064 54.5875L32.0001 47.125L46.1939 54.5875C46.5814 54.7938 47.0314 54.8625 47.4626 54.7875C48.5501 54.6 49.2814 53.5688 49.0939 52.4813L46.3814 36.675L57.8626 25.4813C58.1751 25.175 58.3814 24.775 58.4439 24.3375C58.6126 23.2438 57.8501 22.2313 56.7564 22.0688V22.0688Z" fill="#BCBCBC"/>
</svg>
