<svg width="54" height="52" viewBox="0 0 54 52" fill="none" xmlns="http://www.w3.org/2000/svg">
<path d="M52.0896 18.5251L36.2209 16.2189L29.1271 1.83762C28.9334 1.44387 28.6146 1.12512 28.2209 0.931371C27.2334 0.443871 26.0334 0.850121 25.5396 1.83762L18.4459 16.2189L2.57712 18.5251C2.13962 18.5876 1.73962 18.7939 1.43337 19.1064C1.06313 19.4869 0.859111 19.9989 0.866143 20.5298C0.873174 21.0606 1.09068 21.567 1.47087 21.9376L12.9521 33.1314L10.2396 48.9376C10.176 49.3053 10.2167 49.6835 10.3571 50.0292C10.4974 50.375 10.7319 50.6744 11.0338 50.8937C11.3357 51.113 11.693 51.2433 12.0652 51.2698C12.4374 51.2964 12.8096 51.2181 13.1396 51.0439L27.3334 43.5814L41.5271 51.0439C41.9146 51.2501 42.3646 51.3189 42.7959 51.2439C43.8834 51.0564 44.6146 50.0251 44.4271 48.9376L41.7146 33.1314L53.1959 21.9376C53.5084 21.6314 53.7146 21.2314 53.7771 20.7939C53.9459 19.7001 53.1834 18.6876 52.0896 18.5251Z" fill="#87986A"/>
</svg>
