<svg width="64" height="64" viewBox="0 0 64 64" fill="none" xmlns="http://www.w3.org/2000/svg">
<path d="M16.4986 21.3333H47.4986L45.6453 51C45.5605 52.3541 44.9628 53.625 43.9739 54.5539C42.9851 55.4828 41.6793 55.9999 40.3226 56H23.6773C22.3205 55.9999 21.0148 55.4828 20.0259 54.5539C19.0371 53.625 18.4394 52.3541 18.3546 51L16.4986 21.3333ZM50.6666 13.3333V18.6667H13.3333V13.3333H21.3333V10.6667C21.3333 9.25217 21.8952 7.89562 22.8954 6.89543C23.8955 5.89523 25.2521 5.33333 26.6666 5.33333H37.3333C38.7477 5.33333 40.1043 5.89523 41.1045 6.89543C42.1047 7.89562 42.6666 9.25217 42.6666 10.6667V13.3333H50.6666ZM26.6666 13.3333H37.3333V10.6667H26.6666V13.3333Z" fill="#BCBCBC"/>
</svg>
